<?xml version="1.0" encoding="utf-8"?>
<!-- Generator: Adobe Illustrator 28.0.0, SVG Export Plug-In . SVG Version: 6.00 Build 0)  -->
<svg version="1.1" id="Слой_1" xmlns="http://www.w3.org/2000/svg" xmlns:xlink="http://www.w3.org/1999/xlink" x="0px" y="0px"
	 viewBox="0 0 1000 169" style="enable-background:new 0 0 1000 169;" xml:space="preserve">
<style type="text/css">
	.st0{fill-rule:evenodd;clip-rule:evenodd;fill:#1D1D1B;}
	
		.st1{clip-path:url(#SVGID_00000064341695188244659930000016566313312125081505_);fill:url(#SVGID_00000118387201727798754200000011982067434247375517_);}
	
		.st2{clip-path:url(#SVGID_00000084521620958821799940000014144587887001693084_);fill:url(#SVGID_00000116221738941410921030000005253294019263925895_);}
	
		.st3{clip-path:url(#SVGID_00000008120428071625092730000014595949739303357119_);fill:url(#SVGID_00000120553490912522968010000008913345776604440463_);}
	
		.st4{clip-path:url(#SVGID_00000062882378780917335870000008211510542279416511_);fill:url(#SVGID_00000158029957097144666950000006167438457590596023_);}
	
		.st5{clip-path:url(#SVGID_00000042708901953621431510000014404372412789841304_);fill:url(#SVGID_00000054953289777131060080000009740242431843914881_);}
	
		.st6{clip-path:url(#SVGID_00000041287864631559448910000007786030672636700830_);fill:url(#SVGID_00000076566735129512576110000009155368229812270520_);}
	
		.st7{clip-path:url(#SVGID_00000096034565659394978740000007545101643629829294_);fill:url(#SVGID_00000157272883999003536090000003328874302371108514_);}
	.st8{fill-rule:evenodd;clip-rule:evenodd;fill:#002F87;}
</style>
<g>
	<path class="st0" d="M948.4278564,21.5629387l-5.0478516,0.6717033l-3.1802979,0.3358898
		c-5.7143555,0.5088062-15.2807617,1.3687973-23.3970947,6.8592777
		c-8.0601196,5.429451-17.2246704,16.7106667-23.6207275,25.4120598
		c-69.5651855,12.3447075-107.6883545,55.9634895-132.9275513,84.8865509l-15.5962524,19.5297089l2.6513672-0.885376
		c47.399231-46.3054428,89.649353-71.0509186,129.1819458-75.6611481l0.6463013-0.0763245l16.3799438-22.7201958
		c4.5288086-4.3251915,10.8081055-5.8568878,20.0689087-6.9661942l16.3597412-1.114357l19.0310059-1.4146042
		c11.0065308-1.5469131,20.4558716-4.2336502,33.4365234-23.0560913L1000,2.2011771l-2.2796631-1.8675073
		C981.6047363,17.2224522,963.9732056,19.5275631,948.4278564,21.5629387 M948.8042603,24.4939442
		c13.3878174-1.7504196,28.2210083-4.248867,42.5706787-15.1027241
		c-5.2056274,7.4394379-11.3829956,16.2883568-11.3829956,16.2883568
		c-12.3244019,17.8810806-20.8071899,20.3235435-31.4317627,21.824646l-18.7462158,1.3739204l-16.588623,1.1398239
		c-6.77771,0.8141022-11.7544556,2.3254547-16.135437,4.559288c5.4089966-7.2002144,13.9424438-17.692791,21.3615723-22.7100277
		c7.4901733-5.0528755,16.2323608-5.8365421,22.0178223-6.3606434l3.3483276-0.3460617h-0.0151978L948.8042603,24.4939442z
		 M890.9938354,58.3986893c-1.4401245,1.9743462-10.02948,13.8815308-10.02948,13.8815308s-4.869873,6.7524338-5.4956665,7.6174774
		c-33.6046143,4.1064606-69.081665,22.55233-107.7800293,55.8769913
		C792.2765503,107.8641815,828.6542358,70.3923721,890.9938354,58.3986893"/>
	<g>
		<defs>
			<path id="SVGID_1_" d="M746.309082,157.3647003l-10.3552856,11.3016357
				c51.8724365-39.8838501,81.7268066-43.2829742,124.4450073-42.896225
				c3.9331665,0.2544403,7.6833496,0.4935837,10.1158447-4.9715042l12.8942871-18.364418v-0.005127
				C823.6443481,102.9786301,796.6140747,118.4528046,746.309082,157.3647003"/>
		</defs>
		<clipPath id="SVGID_00000063611082785406704310000007231789157907874212_">
			<use xlink:href="#SVGID_1_"  style="overflow:visible;"/>
		</clipPath>
		
			<linearGradient id="SVGID_00000057113385551353097440000003455157549863944078_" gradientUnits="userSpaceOnUse" x1="45.4395714" y1="422.2265015" x2="50.5280876" y2="422.2265015" gradientTransform="matrix(12.6494617 12.4883423 -11.7958088 13.3920975 5176.800293 -6124.5214844)">
			<stop  offset="0" style="stop-color:#C00D0D"/>
			<stop  offset="0.300003" style="stop-color:#E30613"/>
			<stop  offset="0.5" style="stop-color:#F6B2B6"/>
			<stop  offset="0.719101" style="stop-color:#E30613"/>
			<stop  offset="1" style="stop-color:#C00D0D"/>
		</linearGradient>
		
			<polygon style="clip-path:url(#SVGID_00000063611082785406704310000007231789157907874212_);fill:url(#SVGID_00000057113385551353097440000003455157549863944078_);" points="
			704.7478027,137.8579712 814.8242188,246.5323486 914.614563,133.2375031 804.538147,24.5631256 		"/>
	</g>
	<g>
		<defs>
			<path id="SVGID_00000009558251377331365160000003857010025490053294_" d="M746.2836304,157.3188934L746.2836304,157.3188934
				c50.6205444-49.4654236,92.8756104-71.7378464,130.0369263-76.073288
				c3.2769165-4.6356125,14.6192627-20.0639801,18.0744629-25.1677895
				C809.6915894,70.6767807,772.2249756,131.3980255,746.2836304,157.3188934"/>
		</defs>
		<clipPath id="SVGID_00000064354521108734257240000014517157516342789041_">
			<use xlink:href="#SVGID_00000009558251377331365160000003857010025490053294_"  style="overflow:visible;"/>
		</clipPath>
		
			<linearGradient id="SVGID_00000041255895553157644840000000984149614218754458_" gradientUnits="userSpaceOnUse" x1="45.6492043" y1="423.9393311" x2="50.7377205" y2="423.9393311" gradientTransform="matrix(21.4038982 15.8670492 -14.9871588 22.6605072 6148.4555664 -10260.2226562)">
			<stop  offset="0" style="stop-color:#FFFFFF"/>
			<stop  offset="0.342697" style="stop-color:#FFFFFF"/>
			<stop  offset="0.550003" style="stop-color:#FFFFFF"/>
			<stop  offset="0.91011" style="stop-color:#D3DAF0"/>
			<stop  offset="1" style="stop-color:#D3DAF0"/>
		</linearGradient>
		
			<polygon style="clip-path:url(#SVGID_00000064354521108734257240000014517157516342789041_);fill:url(#SVGID_00000041255895553157644840000000984149614218754458_);" points="
			701.3535156,124.0116119 845.6677246,230.9939575 939.3248291,89.3851624 795.0105591,-17.5972576 		"/>
	</g>
	<g>
		<defs>
			<path id="SVGID_00000089569632569459270620000006579191393758836382_" d="M748.8989868,154.4795074
				c-1.0174561,0.997345-4.5030518,5.0173035-5.5158691,5.9535522
				c29.7018433-23.1985016,54.5794678-47.3232117,116.5218506-56.2586212
				c3.098938-3.704422,12.100769-16.2374268,16.3699341-22.928833
				C819.7922363,89.3617935,782.8395996,122.7475586,748.8989868,154.4795074"/>
		</defs>
		<clipPath id="SVGID_00000085957647157591462170000004316605077477306529_">
			<use xlink:href="#SVGID_00000089569632569459270620000006579191393758836382_"  style="overflow:visible;"/>
		</clipPath>
		
			<linearGradient id="SVGID_00000037665497527038657780000008293695221096771764_" gradientUnits="userSpaceOnUse" x1="46.589386" y1="417.0148315" x2="51.6779022" y2="417.0148315" gradientTransform="matrix(7.6860976 7.5882125 -7.1674204 8.1373682 3419.9501953 -3646.5388184)">
			<stop  offset="0" style="stop-color:#004A93"/>
			<stop  offset="0.106735" style="stop-color:#004A93"/>
			<stop  offset="0.5" style="stop-color:#899DD0"/>
			<stop  offset="0.5589774" style="stop-color:#7490C7"/>
			<stop  offset="0.7490218" style="stop-color:#366BAB"/>
			<stop  offset="0.8881722" style="stop-color:#0F539A"/>
			<stop  offset="0.9606779" style="stop-color:#004A93"/>
			<stop  offset="1" style="stop-color:#004A93"/>
		</linearGradient>
		
			<polygon style="clip-path:url(#SVGID_00000085957647157591462170000004316605077477306529_);fill:url(#SVGID_00000037665497527038657780000008293695221096771764_);" points="
			706.0761719,123.601265 814.4639282,230.6087646 913.5819092,118.0776291 805.1940918,11.0702066 		"/>
	</g>
	<g>
		<defs>
			<path id="SVGID_00000023987711923689036540000015413922421588642712_" d="M856.68396,108.1231308
				c-1.6231079,4.691597,0.9364014,2.7528839,8.3250732,7.3478165c6.2637329,3.9130554,4.9459229,5.449791,4.3912354,7.4649048
				c5.673645-8.6810532,15.9575195-21.2751617,15.9575195-21.2751617c-2.5085449-0.9057236-5.225769-1.2873459-7.9430542-1.2873459
				C867.5886841,100.3733444,857.640564,105.3295517,856.68396,108.1231308"/>
		</defs>
		<clipPath id="SVGID_00000142898139849761892610000007507295084124884913_">
			<use xlink:href="#SVGID_00000023987711923689036540000015413922421588642712_"  style="overflow:visible;"/>
		</clipPath>
		
			<linearGradient id="SVGID_00000041254504379555218400000001001528527224047281_" gradientUnits="userSpaceOnUse" x1="53.5947075" y1="411.8677673" x2="58.6832199" y2="411.8677673" gradientTransform="matrix(7.5502882 4.7179551 -4.7179551 7.5502882 2386.7080078 -3264.682373)">
			<stop  offset="0" style="stop-color:#C00D0D"/>
			<stop  offset="0.5" style="stop-color:#E30613"/>
			<stop  offset="1" style="stop-color:#F6B2B6"/>
		</linearGradient>
		
			<polygon style="clip-path:url(#SVGID_00000142898139849761892610000007507295084124884913_);fill:url(#SVGID_00000041254504379555218400000001001528527224047281_);" points="
			844.9211426,116.5999756 876.8497925,136.5512848 895.4972534,106.7094574 863.5685425,86.7581406 		"/>
	</g>
	<g>
		<defs>
			<path id="SVGID_00000109001094110864775610000010891805250328377475_" d="M913.899292,50.2514458
				c-11.5966797,1.6792183-18.8936768,4.722187-23.5393066,10.9148827l-16.1612549,22.93396
				c3.5061035-3.3482666,14.1918335-4.9765549,25.7121582-5.2971497l1.6488647,0.0356369
				c0.4630127-0.0356369,0.9462891,0,1.4450684-0.0356369c1.6333618-0.0356369,3.3582764-0.1170883,5.1851196-0.1679459
				c16.3696289-0.6767502,39.1306763-3.1294632,52.4116211-19.5042381l19.8811035-29.1369019l2.3914185-3.4703255
				C965.5680542,50.6228943,926.1370239,48.5315399,913.899292,50.2514458"/>
		</defs>
		<clipPath id="SVGID_00000149349019075202203370000007449035764208080780_">
			<use xlink:href="#SVGID_00000109001094110864775610000010891805250328377475_"  style="overflow:visible;"/>
		</clipPath>
		
			<linearGradient id="SVGID_00000141433868997498192270000001041188616611438007_" gradientUnits="userSpaceOnUse" x1="48.5427322" y1="415.8769836" x2="53.6312447" y2="415.8769836" gradientTransform="matrix(13.1885538 10.9655151 -10.3552933 13.9644365 4557.8769531 -6315.2182617)">
			<stop  offset="0" style="stop-color:#D3DDF2"/>
			<stop  offset="0.0730286" style="stop-color:#D3DDF2"/>
			<stop  offset="0.1160765" style="stop-color:#BBCCE7"/>
			<stop  offset="0.2072662" style="stop-color:#7DA1CB"/>
			<stop  offset="0.3382238" style="stop-color:#1A5C9F"/>
			<stop  offset="0.370789" style="stop-color:#004A93"/>
			<stop  offset="0.4273871" style="stop-color:#085097"/>
			<stop  offset="0.5159148" style="stop-color:#1E5FA1"/>
			<stop  offset="0.6253468" style="stop-color:#4379B1"/>
			<stop  offset="0.7513776" style="stop-color:#759CC8"/>
			<stop  offset="0.889697" style="stop-color:#B5C8E5"/>
			<stop  offset="0.949432" style="stop-color:#D3DDF2"/>
			<stop  offset="1" style="stop-color:#D3DDF2"/>
		</linearGradient>
		
			<polygon style="clip-path:url(#SVGID_00000149349019075202203370000007449035764208080780_);fill:url(#SVGID_00000141433868997498192270000001041188616611438007_);" points="
			847.7871094,62.1404572 941.4249268,139.9950562 1009.2853394,48.4832458 915.6472168,-29.3712807 		"/>
	</g>
	<g>
		<defs>
			<path id="SVGID_00000181796209745901033220000017160058494346770854_" d="M943.5856323,23.6945152
				c-5.0578003,0.7225609-16.4714966,0.5444431-25.9615479,6.9560223
				c-9.4949951,6.4063778-20.9696045,21.6414051-26.5823975,29.6812687
				c5.2360229-5.9484291,12.1818237-7.6226006,22.3690796-8.8387489c10.177063-1.2619553,24.8931885-1.0685425,35.3549805-2.5340843
				c10.0701904-1.414608,19.4332275-3.5822868,32.4343262-22.4403687l17.5858765-25.1575413
				C980.5435181,20.4683838,960.5814209,21.2825642,943.5856323,23.6945152"/>
		</defs>
		<clipPath id="SVGID_00000134944149271607972470000005291425628364116890_">
			<use xlink:href="#SVGID_00000181796209745901033220000017160058494346770854_"  style="overflow:visible;"/>
		</clipPath>
		
			<linearGradient id="SVGID_00000150795449241651116020000017549068100352019135_" gradientUnits="userSpaceOnUse" x1="48.4625969" y1="414.7546692" x2="53.5511093" y2="414.7546692" gradientTransform="matrix(13.4031296 11.1439123 -10.523777 14.1916399 4623.7514648 -6425.5273438)">
			<stop  offset="0" style="stop-color:#FFFFFF"/>
			<stop  offset="0.174164" style="stop-color:#FFFFFF"/>
			<stop  offset="0.2421544" style="stop-color:#F9FAFD"/>
			<stop  offset="0.3338175" style="stop-color:#E8EBF8"/>
			<stop  offset="0.353928" style="stop-color:#E3E7F6"/>
			<stop  offset="0.4268597" style="stop-color:#EDEFF9"/>
			<stop  offset="0.5716485" style="stop-color:#FAFBFE"/>
			<stop  offset="0.699997" style="stop-color:#FFFFFF"/>
			<stop  offset="1" style="stop-color:#FFFFFF"/>
		</linearGradient>
		
			<polygon style="clip-path:url(#SVGID_00000134944149271607972470000005291425628364116890_);fill:url(#SVGID_00000150795449241651116020000017549068100352019135_);" points="
			863.9902954,37.8405037 957.6920776,115.7479782 1025.8370361,23.8526764 932.1352539,-54.0548019 		"/>
	</g>
	<g>
		<defs>
			<path id="SVGID_00000051341583118151063620000004644799809089732998_" d="M923.5114136,75.7347794
				c-12.4414673,1.8572617-26.6485596,2.3966599-30.7295532,2.6104126
				c-6.9609985,0.3511124-16.2221069,2.717247-18.7816162,5.9738998
				c-7.8057861,10.2838669-15.2807617,19.8553467-17.3162842,23.804039h0.005249
				c4.7779541-4.671257,20.4609375-4.1776657,39.512085-5.1088562c19.0108032-0.8905106,38.276001-9.6071243,53.4754028-27.9461517
				l11.5609741-16.8887787C953.4980469,68.6871414,939.9015503,73.3125839,923.5114136,75.7347794"/>
		</defs>
		<clipPath id="SVGID_00000153696000423313092640000005258011778466749085_">
			<use xlink:href="#SVGID_00000051341583118151063620000004644799809089732998_"  style="overflow:visible;"/>
		</clipPath>
		
			<linearGradient id="SVGID_00000070840287551795453140000017520215886753617026_" gradientUnits="userSpaceOnUse" x1="48.8121796" y1="416.8059998" x2="53.9006958" y2="416.8059998" gradientTransform="matrix(12.4997015 10.392767 -9.8144426 13.2350826 4353.4379883 -5970.621582)">
			<stop  offset="0" style="stop-color:#F6B2B6"/>
			<stop  offset="0.0561829" style="stop-color:#F6B2B6"/>
			<stop  offset="0.0965307" style="stop-color:#F5ADB1"/>
			<stop  offset="0.1454771" style="stop-color:#F49EA3"/>
			<stop  offset="0.1988913" style="stop-color:#F1858C"/>
			<stop  offset="0.2555079" style="stop-color:#ED636B"/>
			<stop  offset="0.3139623" style="stop-color:#E83842"/>
			<stop  offset="0.370789" style="stop-color:#E30613"/>
			<stop  offset="0.4522665" style="stop-color:#CD0A0F"/>
			<stop  offset="0.516861" style="stop-color:#C00D0D"/>
			<stop  offset="0.6187157" style="stop-color:#CD0A0F"/>
			<stop  offset="0.747192" style="stop-color:#E30613"/>
			<stop  offset="0.9606779" style="stop-color:#F6B2B6"/>
			<stop  offset="1" style="stop-color:#F6B2B6"/>
		</linearGradient>
		
			<polygon style="clip-path:url(#SVGID_00000153696000423313092640000005258011778466749085_);fill:url(#SVGID_00000070840287551795453140000017520215886753617026_);" points="
			833.7738647,89.0748215 921.3606567,161.8983612 984.1477661,77.2281189 896.5606689,4.4045749 		"/>
	</g>
	<polygon class="st8" points="181.5165558,127.7225571 181.5165558,117.1435623 139.7651978,117.1435623 139.7651978,97.2169418 
		177.3032532,97.2169418 177.3032532,86.7549515 139.7651978,86.7549515 139.7651978,68.6296844 179.3334961,68.6296844 
		179.3334961,58.1473541 111.9411163,58.1473541 111.9411163,127.7225571 	"/>
	<path class="st8" d="M222.2225037,127.7225571V68.6296844h16.3593903c4.9714355,0,9.5614624,0.3714523,13.7695007,3.1599731
		c3.0480042,2.1676865,4.9664459,5.2666321,4.9664459,9.103363c0,3.1904907-1.1348572,6.4878235-5.3531189,9.1695175
		c-5.4854431,3.5619431-15.0469055,4.0758743-21.0562744,3.3278427l-3.4346924-0.3917923l27.7070007,34.7239685h32.1541748
		l-26.3125-28.9892197c4.7220154-0.5139313,12.2734375-2.3916092,16.8529053-5.3429565
		c5.4956665-3.714592,8.2995911-9.1949005,8.2995911-14.3292313c0-5.7296982-3.0837402-11.9580383-10.07547-16.0644264
		c-8.3145142-4.7120171-19.6518555-4.849369-30.1239319-4.849369h-51.699173v69.5752029H222.2225037z"/>
	<polygon class="st8" points="446.8703003,127.7225571 446.8703003,98.3567581 484.4030762,98.3567581 484.4030762,87.8795547 
		446.8703003,87.8795547 446.8703003,68.6296844 487.4663086,68.6296844 487.4663086,58.1473541 419.0664062,58.1473541 
		419.0664062,127.7225571 	"/>
	<polygon class="st8" points="525.5102539,58.145256 497.5588684,58.145256 497.5588684,127.7205429 566.4929199,127.7205429 
		566.4929199,117.1313782 525.5102539,117.1313782 	"/>
	<polygon class="st8" points="681.3721313,68.6281281 711.3687134,68.6281281 711.3687134,127.7210846 739.3251343,127.7210846 
		739.3251343,68.6281281 769.3015137,68.6281281 769.3015137,58.1458015 681.3721313,58.1458015 	"/>
	<path class="st8" d="M622.149231,56.1180344c-13.0166626,0-31.269043,2.9310074-43.5325317,11.7239456
		c-9.7139893,6.8847427-14.293457,16.7462997-14.293457,25.1576157c0,8.3044739,4.5794678,18.1252747,14.293457,25.0253143
		c12.2634888,8.6657562,30.5158691,11.6171036,43.5325317,11.6171036c13.0010986,0,31.3857422-2.9513474,43.6439819-11.6171036
		c9.7037354-6.9000397,14.1816406-16.7208405,14.1816406-25.0253143c0-8.4113159-4.4779053-18.2728729-14.1816406-25.1576157
		C653.5349731,59.0490417,635.1503296,56.2503433,622.149231,56.1180344 M622.149231,121.2204514
		c-6.9054565,0-15.0674438-1.5519638-21.0870361-9.0778961c-4.9714355-6.1214981-5.8516235-13.1639404-5.8516235-19.1429596
		c0-6.2436295,0.880188-13.1538467,5.8516235-19.2650909c6.0195923-7.6887589,14.1815796-9.2051544,21.0870361-9.2051544
		c7.0065918,0,15.0670776,1.5163956,21.1630859,9.2051544c4.9916382,6.1112442,5.897583,13.0214615,5.897583,19.2650909
		c0,5.9790192-0.9059448,13.0214615-5.897583,19.1429596C637.2163086,119.6684875,629.1558228,121.2204514,622.149231,121.2204514"
		/>
	<path class="st8" d="M351.5935669,56.1180344c-13.0014038,0-31.2488098,2.9310074-43.5169678,11.7239456
		c-9.7089844,6.8847427-14.30896,16.7462997-14.30896,25.1576157c0,8.3044739,4.5999756,18.1252747,14.30896,25.0253143
		c12.268158,8.6657562,30.515564,11.6171036,43.5169678,11.6171036c13.0163574,0,31.4112854-2.9513474,43.6645203-11.6171036
		c9.6885071-6.9000397,14.1713867-16.7208405,14.1713867-25.0253143c0-8.4113159-4.4828796-18.2728729-14.1713867-25.1576157
		C383.0048523,59.0490417,364.6099243,56.2503433,351.5935669,56.1180344 M351.5935669,121.2204514
		c-6.8898621,0-15.0621033-1.5519638-21.0513-9.0778961c-4.9866333-6.1214981-5.8873291-13.1639404-5.8873291-19.1429596
		c0-6.2436295,0.9006958-13.1538467,5.8873291-19.2650909c5.9891968-7.6887589,14.161438-9.2051544,21.0513-9.2051544
		c7.0066528,0,15.0671082,1.5163956,21.193573,9.2051544c4.9866333,6.1112442,5.8671265,13.0214615,5.8671265,19.2650909
		c0,5.9790192-0.8804932,13.0214615-5.8671265,19.1429596C366.660675,119.6684875,358.6002197,121.2204514,351.5935669,121.2204514"
		/>
	<path class="st8" d="M13.9069195,127.7206192l10.9912109-20.1963654h38.6777115l11.8614502,20.1963654h31.2687149
		L64.339241,58.1453362H38.4233475L0,127.7206192H13.9069195z M29.9917698,98.1003036l13.1486416-24.2314758h0.3866692
		l14.2886238,24.2314758H29.9917698z"/>
</g>
</svg>
