<?xml version="1.0" encoding="utf-8"?>
<!-- Generator: Adobe Illustrator 28.0.0, SVG Export Plug-In . SVG Version: 6.00 Build 0)  -->
<svg version="1.1" id="Слой_1" xmlns="http://www.w3.org/2000/svg" xmlns:xlink="http://www.w3.org/1999/xlink" x="0px" y="0px"
	 viewBox="0 0 1000 251.1" style="enable-background:new 0 0 1000 251.1;" xml:space="preserve">
<style type="text/css">
	.st0{fill:#EF3124;}
</style>
<polygon class="st0" points="885.7,0 885.7,171.5 916,171.5 916,120.5 960.5,171.5 1000,171.5 944.9,108.2 996.2,52.7 957.6,52.7 
	916,98.5 916,0 "/>
<path class="st0" d="M821.7,47.7c-17.5,0-28.7,9.3-34.2,18.1V52.7h-30.4v118.8h30.4V98.9c0-16.5,8-24,21.9-24
	c13.5,0,21.3,7.6,21.3,24v72.6h30.4V97.5C861.2,65,847.5,47.7,821.7,47.7"/>
<path class="st0" d="M275.1,42.8c0-11.6,4.9-16.9,16-16.9h34.2V0h-42.8c-24.7,0-37.8,12.9-37.8,37.1v23h-27.2v27.4h27.2v84h30.4v-84
	h29.7V60.1h-29.7V42.8z"/>
<rect x="171.3" class="st0" width="30.4" height="171.5"/>
<rect y="217.4" class="st0" width="162.4" height="33.7"/>
<path class="st0" d="M110.7,28.7C106.1,14.9,100.7,4,82.5,4c-18.3,0-24,10.9-28.8,24.7L3.4,171.5h33.3l11.6-34h64.1l10.8,34h35.4
	L110.7,28.7z M58,108.9l22.8-67.7h0.8l21.5,67.7H58z"/>
<path class="st0" d="M730.6,135V95.2c0-29.1-18.6-47.5-49.8-47.5c-32.3,0-49.4,19.4-50.8,39.7h30.8c1.1-4.4,5.7-12,20-12
	c11.8,0,19.4,5.5,19.4,19.8H670c-27,0-43,14.1-43,37.8c0,24.7,17.5,41.6,42.8,41.6c18.5,0,28.8-8.8,33.3-15.4
	c4,8,12.9,12.4,24.5,12.4h10.5v-27.4C732.7,144.1,730.6,141.6,730.6,135 M700.2,127.2c0,13.7-9.7,21.5-22.4,21.5
	c-11,0-19.6-4-19.6-15.8c0-11.6,9.5-13.5,17.7-13.5h24.3V127.2z"/>
<path class="st0" d="M415.4,135V95.2c0-29.1-18.6-47.5-49.8-47.5c-32.3,0-49.4,19.4-50.8,39.7h30.8c1.1-4.4,5.7-12,20-12
	c11.8,0,19.4,5.5,19.4,19.8h-30.2c-27,0-43,14.1-43,37.8c0,24.7,17.5,41.6,42.8,41.6c18.5,0,28.8-8.8,33.3-15.4
	c4,8,12.9,12.4,24.5,12.4H423v-27.4C417.5,144.1,415.4,141.6,415.4,135 M385,127.2c0,13.7-9.7,21.5-22.4,21.5
	c-11,0-19.6-4-19.6-15.8c0-11.6,9.5-13.5,17.7-13.5H385V127.2z"/>
<path class="st0" d="M585.4,84.4c11.4-5.1,21.7-16.9,21.7-33.5c0-28.1-18.4-44.9-49.2-44.9h-78.9v165.6h76.2
	c35.4,0,55.5-17.5,55.5-48.1C610.7,101.7,598.3,89.2,585.4,84.4 M510.5,34.8h43.9c13.1,0,20,6.1,20,18.6c0,12-7,18.6-19.8,18.6
	h-44.1V34.8z M551.7,142.6h-41.1v-42.2h41.1c17.5,0,26.4,7.2,26.4,21.1C578,135.4,569,142.6,551.7,142.6"/>
</svg>
