<?xml version="1.0" encoding="utf-8"?>
<!-- Generator: Adobe Illustrator 28.0.0, SVG Export Plug-In . SVG Version: 6.00 Build 0)  -->
<svg version="1.1" id="Слой_1" xmlns="http://www.w3.org/2000/svg" xmlns:xlink="http://www.w3.org/1999/xlink" x="0px" y="0px"
	 viewBox="0 0 1000 480.7" style="enable-background:new 0 0 1000 480.7;" xml:space="preserve">
<style type="text/css">
	.st0{fill:#007EBF;}
</style>
<g id="interns">
	<g>
		<g id="gazprom-en-logo_00000150808246513530337250000011096470117932271010_">
			<path class="st0" d="M265.8,86.8C255.6,42.2,230,5.9,226.5,0c-5.6,8.3-25.9,40.4-36.3,75.9c-11.2,39.6-12.9,74.8-9,109.4
				s18.5,70.2,18.5,70.2c7.8,18.7,19.5,38.7,27,48.5c11.1-14.5,36.7-57.6,44.7-113.9C275.8,158.8,275.9,131.4,265.8,86.8z
				 M226.5,292.9c-5-9.4-12.8-27.4-13.6-55.2c-0.2-26.8,10.6-49.8,13.7-54.6c2.8,4.8,12.1,24.8,13.2,52.2
				C240.6,262.1,231.7,283.3,226.5,292.9z M262.8,162.6c-0.3,17-2.3,35-5,45.7c1-18.5-1.2-44.6-5.6-65
				c-4.2-20.4-16.2-54.4-25.9-70.2c-8.9,15-19.8,44.4-25.6,70c-5.7,25.6-5.9,56.5-5.9,65.7c-1.6-7.8-5.3-35.7-4.2-63.7
				c0.9-23.1,6.2-46.8,9.2-57.8c11.3-36.5,24.1-59.8,26.5-63.5c2.4,3.7,18.6,32.4,26.9,62.6C261.6,116.6,263.2,145.5,262.8,162.6z
				 M243.8,314.4h43.9V428c-30.3,32.4-73.5,52.6-121.4,52.6C74.5,480.7,0,406.2,0,314.4c0-91.8,74.5-166.3,166.3-166.3v125
				c-23.9,0-47.8,9.1-66,27.4c-4.3,4.3-8.1,9-11.4,13.9c-24.5,36.3-20.7,86,11.4,118.2c18.2,18.2,42.1,27.3,66,27.3
				c23.8,0,47.7-9,65.8-27.1c0.1-0.1,0.2-0.2,0.3-0.2c0,0,0,0,0,0c0.1-0.1,0.1-0.1,0.2-0.2c18.2-18.3,18.2-47.9,0-66.1
				c-18.2-18.3-47.9-18.3-66.1,0c0,0.1-0.1,0.1-0.2,0.2v-52H243.8z M385.9,451c0,11.6-1.4,29.7-24.8,29.7h-27.6
				c-23.2,0-24.7-18.1-24.7-29.7V344.1c0-11.6,1.4-29.7,24.7-29.7h27.6c23.3,0,24.8,18.1,24.8,29.7v23.5h-33.3v-27.1
				c0-2.8-2.1-5.5-5.2-5.5c-1.9,0-5.2,1.2-5.2,5.5v113.4c0,4.3,3.3,5.5,5.2,5.5c3.1,0,5.2-2.6,5.2-5.5v-36.4h-5v-18.3h38.4V451z
				 M399.2,480.7l17.3-166.3h52.2l17.3,166.3h-32.6l-3.1-44.2h-15.7l-3,44.2H399.2z M436,418.2h13.3l-5.8-83.1h-1.9L436,418.2z
				 M498.4,459.8l31.9-124.7h-28.6v-20.7h62.7v20.7l-31.8,124.3h33.8v21.3h-68V459.8z M582,480.7V314.4h52.4
				c23.2,0,24.7,18.1,24.7,29.7v50.4c0,11.6-1.4,29.7-24.7,29.7h-19v56.5H582z M615.4,403.4h4.2c3.7,0,6.2-3.1,6.2-8.3v-51.7
				c0-5.2-2.6-8.3-6.2-8.3h-4.2V403.4z M757.4,480.7h-34.2l-11.3-61.5h-2.4v61.5h-33.2V314.4h52.2c23.3,0,24.7,18.1,24.7,29.7v51.5
				c0,4.5-0.2,15.4-12,20.2L757.4,480.7z M709.4,398.5h4.3c3.6,0,6.1-3.1,6.1-8.3v-46.8c0-5.2-2.6-8.3-6.1-8.3h-4.3V398.5z
				 M775.3,451V344.1c0-11.6,1.4-29.7,24.8-29.7h27.5c23.3,0,24.8,18.1,24.8,29.7V451c0,11.6-1.4,29.7-24.8,29.7h-27.5
				C776.8,480.7,775.3,462.7,775.3,451z M819,453.9V340.5c0-2.8-2.1-5.5-5.2-5.5c-1.9,0-5.2,1.2-5.2,5.5v113.4
				c0,4.3,3.3,5.5,5.2,5.5C816.9,459.4,819,456.8,819,453.9z M956.8,314.4h43.2v166.3h-33.2V376.4h-1.2l-17.1,104.3h-26.6
				l-17.1-104.3h-1.2v104.3h-33.2V314.4h43.2l21.6,116.9L956.8,314.4z"/>
		</g>
	</g>
</g>
</svg>
