<?xml version="1.0" encoding="utf-8"?>
<!-- Generator: Adobe Illustrator 28.0.0, SVG Export Plug-In . SVG Version: 6.00 Build 0)  -->
<svg version="1.1" id="Слой_1" xmlns="http://www.w3.org/2000/svg" xmlns:xlink="http://www.w3.org/1999/xlink" x="0px" y="0px"
	 viewBox="0 0 769.3 1000" style="enable-background:new 0 0 769.3 1000;" xml:space="preserve">
<style type="text/css">
	.st0{fill:#F63D37;}
	.st1{fill:#FFFFFF;}
	.st2{fill:#020A0A;}
	.st3{fill-rule:evenodd;clip-rule:evenodd;fill:#020A0A;}
</style>
<path id="_x3C_Path_x3E_" class="st0" d="M0.8,0h768.5v770.2H0.8V0z"/>
<path id="_x3C_Path_x3E__00000084493019453740377620000009675052753897412481_" class="st1" d="M684.4,146.3l-86.2,139.5
	c-9.5,15.8-8,28-3.7,39.9l131.1,335.4H182.7c-48.8,0-86.4-39.1-86.4-85.8L95.9,129c1.2-57.6,85.2-58.6,86.8-0.2v418.3
	c-0.2,13.2,11.5,28.2,26.7,27.8h397.7L504.3,332.7c-2.9-9.3-4.5-18.5-4.5-27.8c0-10.3,4.5-26.5,11.1-39.9l94.4-155.6
	c7-14,21.2-23.5,37.9-24.1c23.7-1,43.8,15.2,44.7,40.1C688.1,130.5,686.8,141.4,684.4,146.3z"/>
<path id="_x3C_Path_x3E__00000168806875582470402590000001837933285129274026_" class="st1" d="M385,428.2V128.8
	c0-58.4,85.2-58.8,86.2,0v302.7c0,69.1-51.9,115-115,115c-63.4,0-115.2-46.9-115.2-115V128.8c0-58.4,86-58.4,86,0v299.4
	C327,468.3,385,470.8,385,428.2z"/>
<path id="_x3C_Path_x3E__00000106114050023613225870000012605691497849001118_" class="st2" d="M0,840.7h42.8V957h45.9v36.6H0V840.7
	z"/>
<path id="_x3C_Path_x3E__00000088842051460174355320000004089083010865943711_" class="st2" d="M106,931.9v-91.2h42.8v90.1
	c0,9.5,1.6,30.5,24.5,30.5c22.6,0,24.5-21,24.5-30.5v-90.1h42.8v91.2c0,16.3-3.5,66-67.3,66S106,948.1,106,931.9z"/>
<path id="_x3C_Path_x3E__00000110431211735419067980000006168534137321370291_" class="st2" d="M268.3,840.7h42.8v64.2l46.1-64.2
	h50.2l-58,74.1l59.7,78.8h-53.5L311.1,928v65.6h-42.8V840.7z"/>
<path id="_x3C_Path_x3E__00000096020899095084994770000001516972219915448763_" class="st2" d="M603.3,840.7h42.8v152.9h-42.8V840.7
	z"/>
<path id="_x3C_Path_x3E__00000119075875344102037410000013647278862633448608_" class="st2" d="M677.6,840.7h42.8V957h45.9v36.6
	h-88.7V840.7z"/>
<path id="_x3C_Compound_Path_x3E_" class="st3" d="M410.5,917.3c0-41.8,27-82.5,84.2-82.5s84,40.7,84,82.5s-26.7,82.7-84,82.7
	S410.5,959.1,410.5,917.3z M533.5,917.3c0-30-18.5-45.1-38.9-45.1c-20.4,0-38.9,15-38.9,45.1c0,30.2,18.5,45.1,38.9,45.1
	C515,962.3,533.5,947.5,533.5,917.3z"/>
</svg>
