<?xml version="1.0" encoding="utf-8"?>
<!-- Generator: Adobe Illustrator 28.0.0, SVG Export Plug-In . SVG Version: 6.00 Build 0)  -->
<svg version="1.1" id="Слой_1" xmlns="http://www.w3.org/2000/svg" xmlns:xlink="http://www.w3.org/1999/xlink" x="0px" y="0px"
	 viewBox="0 0 998.4 1000" style="enable-background:new 0 0 998.4 1000;" xml:space="preserve">
<style type="text/css">
	.st0{fill-rule:evenodd;clip-rule:evenodd;fill:#E6000E;}
</style>
<g>
	<path class="st0" d="M0,298.9c0-79.6,31.4-154.6,88.6-211.2C145.7,31.2,221.4,0,301.7,0h696.7v151.9H301.7
		c-39.4,0-76.6,15.4-104.7,43.2c-28.1,27.9-43.7,64.8-43.7,103.8l-0.9,255c-7.1,67.7-58.6,122.4-125.3,132.4L0,690.5V298.9z"/>
	<path class="st0" d="M0,1000V848.1h696.7c39.4,0,76.6-15.4,104.7-43.3C829.6,777,845,740.1,845,701l0.1-242
		c0-72.1,54.2-134.6,126.1-145.4l27.1-4.1V701c0,79.7-31.4,154.6-88.6,211.2c-57.1,56.6-132.7,87.7-213.1,87.7H0z"/>
	<polygon class="st0" points="591.2,690.5 591.2,496.9 499.2,602.8 407.1,496.9 407.1,690.5 285.2,690.5 285.2,309.5 400.7,309.5 
		499.2,432 597.6,309.5 713.1,309.5 713.1,690.5 	"/>
</g>
</svg>
