<?xml version="1.0" encoding="utf-8"?>
<!-- Generator: Adobe Illustrator 28.0.0, SVG Export Plug-In . SVG Version: 6.00 Build 0)  -->
<svg version="1.1" id="Слой_1" xmlns="http://www.w3.org/2000/svg" xmlns:xlink="http://www.w3.org/1999/xlink" x="0px" y="0px"
	 viewBox="0 0 1000 345.8445435" style="enable-background:new 0 0 1000 345.8445435;" xml:space="preserve">
<style type="text/css">
	.st0{fill:#FF0508;}
	.st1{fill:#FFFFFF;}
</style>
<path class="st0" d="M0,345.8445435V129.5799866h216.2645416V0h345.6210938v345.8445435H0z"/>
<path class="st1" d="M117.5156403,277.4798889h-4.6916809L90.705986,178.0607758H49.3744469v120.4200287h21.4477196V199.28508
	h4.6916885l21.4477234,99.4191437h36.4164429l21.8945465-99.4191437h4.6916962v99.4191437h21.4477081V178.2841949h-41.3315277
	L117.5156403,277.4798889z M335.3440857,298.4808044h75.2904358v-21.000885h-53.395874v-30.1608582h46.0232544v-20.1072388
	h-46.0232544V199.28508h53.395874v-21.0009003h-75.2904358V298.4808044z M258.4897156,280.6076965
	c-24.5755005,0-35.9696045-18.3199158-35.9696045-42.2252045s11.394104-42.2252045,35.9696045-42.2252045
	c24.575531,0,35.969635,18.3199158,35.969635,42.2252045S282.8418274,280.6076965,258.4897156,280.6076965z
	 M258.4897156,175.1564026c-36.8632507,0-58.3109741,25.4691772-58.3109741,62.7792664s21.4477234,63.6729126,58.3109741,63.6729126
	s58.3110352-26.3628235,58.3110352-63.6729126S295.3529968,175.1564026,258.4897156,175.1564026z M425.8266602,298.4808044
	h23.2350159l26.1394043-47.5871277l27.9267273,47.5871277h23.2350464l-37.0867004-63.0026855l35.0759583-57.4173431h-23.2350159
	l-24.5755005,42.8954315l-25.0223389-42.8954315h-23.2350159l33.5120544,56.7471008L425.8266602,298.4808044z"/>
<path class="st0" d="M663.092041,178.0607758v51.1617584h-9.3833618v-40.2144775l-12.5112305,40.2144775h-10.5004883
	l-12.7345581-40.4378967v40.4378967h-9.3834229v-51.1617584h14.96875l12.5111694,40.2144775l12.2877808-40.2144775H663.092041z"/>
<path class="st0" d="M696.3807373,177.3905334c14.2985229-0.2234039,24.5755615,10.2770386,24.3521118,26.3628387
	c0.2234497,16.0857849-10.0535889,26.5862427-24.3521118,26.3628387
	c-14.2984619,0.2234039-24.3520508-10.2770386-24.3520508-26.3628387
	C671.8052368,187.667572,682.0822144,177.1671295,696.3807373,177.3905334z M696.8275757,221.4030457
	c8.9365234,0,14.2984619-6.7024078,14.2984619-17.6496887s-5.3619385-17.4262848-14.2984619-17.4262848h-0.6702271
	c-8.9365845,0-14.2984619,6.4790039-14.2984619,17.4262848s5.3618774,17.6496887,14.2984619,17.6496887H696.8275757z"/>
<path class="st0" d="M735.4781494,212.2430878c0.4468994,5.1385193,4.0214233,9.1599579,11.394165,9.1599579h0.670166
	c5.1384888,0,8.2663574-2.9043884,8.2663574-6.2555847c0-3.1278076-1.3405151-4.6916962-5.5853271-5.5853577l-8.9365845-1.7873077
	c-8.7131348-1.787323-12.9579468-6.925827-12.9579468-14.7453156c-0.2234497-7.8194733,7.149292-15.4155426,18.9901733-15.4155426
	s18.9901733,7.149231,18.9901733,16.7560272h-9.6067505c-0.2234497-5.1385193-4.0214233-8.0428925-9.3834229-8.0428925h-0.6702271
	c-5.1384888,0-8.4896851,2.9043884-8.4896851,6.2556c0,3.3511963,1.7872925,4.9150848,6.0321655,5.8087463l7.5960693,1.5638885
	c8.9365845,1.787323,13.8516846,6.4790039,13.8516846,14.5218964c0,8.71315-7.149231,15.862381-19.213562,15.6389618
	c-13.4048462,0-19.8838501-7.149231-20.3306885-17.8730927
	C726.0949097,212.2430725,735.4781494,212.2430725,735.4781494,212.2430878z"/>
<path class="st0" d="M796.2467041,177.3905334c12.7345581-0.2234039,20.5540771,7.8194885,21.0008545,17.4262848h-9.6067505
	c-1.1170654-5.5853424-4.9151611-8.7131348-10.9472656-8.7131348h-0.6702271
	c-8.2663574,0-14.0750122,6.7024078-13.8516846,17.4262848c0,10.7238617,5.5853271,17.6496887,13.8516846,17.6496887h0.6702271
	c6.0321655,0,10.0535889-3.1277924,10.9472656-8.71315h9.6067505c-0.6702271,10.0536194-8.0429077,17.649704-21.0008545,17.4262848
	c-15.1921387,0.2234192-24.1286621-10.5004425-23.9053345-26.3628235
	C772.3414307,188.1143951,781.2780151,177.3905334,796.2467041,177.3905334z"/>
<path class="st0" d="M847.6318359,177.3905334c14.2984619-0.2234039,24.5755005,10.2770386,24.3521118,26.3628387
	c0.2233887,16.0857849-10.0536499,26.5862427-24.3521118,26.3628387
	c-14.2984619,0.2234039-24.3520508-10.2770386-24.3520508-26.3628387
	C823.0563354,187.667572,833.333374,177.1671295,847.6318359,177.3905334z M847.8552856,221.4030457
	c8.9365234,0,14.2984619-6.7024078,14.2984619-17.6496887s-5.3619385-17.4262848-14.2984619-17.4262848h-0.6702271
	c-8.9365234,0-14.2984619,6.4790039-14.2984619,17.4262848s5.3619385,17.6496887,14.2984619,17.6496887H847.8552856z"/>
<path class="st0" d="M940.5719604,178.0607758l-12.5111694,51.1617584h-12.5111694l-7.3726196-37.0866852l-7.819519,37.3100891
	h-12.5111694l-12.2877197-51.1617584h10.0535889l8.9365845,40.4378967l7.819458-40.4378967h11.8408813l7.819519,40.6613159
	l8.7131348-40.6613007h9.8302002V178.0607758z"/>
<path class="st0" d="M608.3556519,247.319046h37.9803467v8.71315h-28.3735352v11.8409119h23.9052734v8.7131653h-23.9052734
	v12.9579773h29.0437622v8.7131348h-38.6505737V247.319046z"/>
<path class="st0" d="M684.3163452,298.4808044l-11.6175537-17.8730774l-11.8408813,17.8730774h-10.9472656l17.4262695-26.1394043
	L651.02771,247.3190765h11.394104l10.723877,16.3092194l10.7238159-16.3092194h10.9472656l-16.3092041,24.5755157
	l17.4262695,26.5862122H684.3163452z"/>
<path class="st0" d="M720.5093994,246.6488037c12.7346191-0.2234039,20.5541382,7.8194885,21.0009155,17.4263h-9.6067505
	c-1.1170654-5.5853577-4.9151611-8.71315-10.9472656-8.71315h-0.6702271c-8.2663574,0-14.0750732,6.7024078-13.8516846,17.4262848
	c0,10.723877,5.5853271,17.6496582,13.8516846,17.6496582h0.6702271c6.0321655,0,10.0535889-3.1277771,10.9472656-8.7131348
	h9.6067505c-0.6702271,10.0536499-8.0429077,17.6496887-21.0009155,17.4262695
	c-15.1920776,0.2234192-24.1286621-10.5004272-23.9052734-26.3628235
	C696.3807373,257.1492615,705.5406494,246.4253998,720.5093994,246.6488037z"/>
<path class="st0" d="M750.2234497,247.319046h9.6067505v21.2242889h21.8945312V247.319046h9.6067505v51.1617279h-9.6067505
	v-21.2243042h-21.8945312v21.2243042h-9.6067505V247.319046z"/>
<path class="st0" d="M833.1099243,286.4164429h-21.0008545l-4.4682617,12.0643311h-10.2770386l19.8837891-51.1617432h11.394104
	l19.213623,51.1617432h-10.2770386L833.1099243,286.4164429z M829.758728,277.4798889l-7.3726196-19.4369812l-7.149231,19.4369812
	H829.758728z"/>
<path class="st0" d="M896.1126709,247.319046v51.1617279h-12.5111694l-19.6604004-37.7569275v37.7569275h-9.6067505v-51.1617432
	H866.84552l19.6604004,37.5335083v-37.5335388C886.5059204,247.3190002,896.1126709,247.3190002,896.1126709,247.319046z"/>
<path class="st0" d="M929.6247559,246.6488037c12.5111694,0,21.0008545,7.5960846,21.4476929,18.3199158h-9.6067505
	c-0.8936157-5.8087463-4.6917114-9.3833618-11.394104-9.3833618h-0.6702881c-9.1599731,0-14.7453003,6.9258423-14.7453003,17.4263
	c0,10.7238464,5.3618774,17.6496887,14.7453003,17.6496887h0.6702271c6.2555542,0,11.6175537-3.574646,13.1813965-9.3833923
	l0.2233887-0.4468079h-13.6282349v-8.7131348h21.8945312v26.5862427h-8.2663574v-4.9151001
	c-3.1277466,3.3511963-7.819458,5.5853271-14.2984619,5.5853271c-14.2984619,0.2234497-24.1286621-11.394104-23.9052734-26.3628235
	C904.8258057,258.0429077,915.1028442,246.4253998,929.6247559,246.6488037z"/>
<path class="st0" d="M961.3494263,247.319046h37.9803467v8.71315h-28.3735352v11.8409119h23.9052734v8.7131653h-23.9052734
	v12.9579773H1000v8.7131348h-38.6505737V247.319046z"/>
</svg>
