<?xml version="1.0" encoding="utf-8"?>
<!-- Generator: Adobe Illustrator 28.0.0, SVG Export Plug-In . SVG Version: 6.00 Build 0)  -->
<svg version="1.1" id="Слой_1" xmlns="http://www.w3.org/2000/svg" xmlns:xlink="http://www.w3.org/1999/xlink" x="0px" y="0px"
	 viewBox="0 0 1000 1000" enable-background="new 0 0 1000 1000" xml:space="preserve">
<g>
	<defs>
		<rect id="SVGID_1_" x="0.4725275" y="0.4175824" width="1000" height="1000"/>
	</defs>
	<clipPath id="SVGID_00000021798244245183496200000014997599047346587800_">
		<use xlink:href="#SVGID_1_"  overflow="visible"/>
	</clipPath>
	<g clip-path="url(#SVGID_00000021798244245183496200000014997599047346587800_)">
		<path fill="#FF0032" d="M1000.4725342,0.4175824h-1000v1000h1000V0.4175824z"/>
		<path fill="#FFFFFF" d="M304.7350464,77.3365784l-73.5052643,152.5992432L157.7492828,77.3365784H77.4672775v230.7585144
			h56.2607498V142.9530792l71.8619995,139.5019989h51.2799988l71.8874817-139.5019989v165.1420135h56.2600098V77.3365784
			H304.7350464z"/>
		<path fill="#FFFFFF" d="M666.7000122,77.3368301v45.944252H767.187561l-0.2275391,184.7615204h56.2600098l0.2525024-184.7615204
			h100.5099487v-45.944252H666.7000122z"/>
		<path fill="#FFFFFF" d="M867.5700073,846.5550537c-1.414978,9.2025146-5.1074829,16.7625122-11.022522,22.4525146
			c-5.5899658,5.3850098-13.1749268,9.2050171-22.5549927,11.352478
			c-9.2799072,2.1500244-22.8599243,3.3650513-37.2474365,3.3650513s-28.1175537-1.9225464-39.2424927-5.7399902
			c-10.7974854-3.6925659-19.3450317-10.1400146-25.4125366-19.1675415
			c-6.0949707-9.0774536-9.1774902-22.1749878-9.1774902-38.9650269v-23.5924683
			c0-16.789978,3.0825195-29.8875122,9.1774902-38.9649658c6.0424805-9.0025635,14.5900269-15.4500122,25.3875122-19.1650391
			c11.125-3.7950439,24.3250122-5.7399902,39.2424927-5.7399902c14.9200439,0,27.9675293,1.2374878,37.2449951,3.3624878
			c9.3575439,2.147522,16.9674683,5.9925537,22.5549927,11.352478c5.9175415,5.7150269,9.6099854,13.2750244,11.0250244,22.4800415
			h56.2874756c-1.5425415-19.0400391-8.0424805-35.2749634-19.2949829-48.2450562
			c-10.289978-11.8599243-24.5249634-20.5324097-42.2775269-25.8174438
			c-17.2449951-5.1324463-39.8999634-7.8399658-65.539978-7.8399658c-26.9549561,0-50.3699951,3.8699951-69.5600586,11.5324707
			c-19.4949341,7.7624512-34.6174316,20.7075195-44.9849243,38.4849854
			c-9.937561,17.0425415-15.1450806,39.7974854-15.4750366,67.6624756v2.5800781l3.0100098,0.102417l-3.0100098,0.1000366v2.5549927
			c0.3549805,27.8900146,5.5650635,50.6199951,15.4750366,67.6625366
			c10.3674927,17.7774658,25.4899902,30.7224731,44.9849243,38.4849243
			c19.1900635,7.6375732,42.6051025,11.5300293,69.5600586,11.5300293c26.9550171,0,48.2949829-2.7050171,65.539978-7.8374634
			c17.7525635-5.2850342,31.9875488-13.9575195,42.2775269-25.8175659
			c11.2525024-12.9699707,17.7524414-29.2049561,19.2949829-48.2449341h-56.3125L867.5700073,846.5550537z"/>
	</g>
</g>
</svg>
