<?xml version="1.0" encoding="utf-8"?>
<!-- Generator: Adobe Illustrator 28.0.0, SVG Export Plug-In . SVG Version: 6.00 Build 0)  -->
<svg version="1.1" id="Слой_1" xmlns="http://www.w3.org/2000/svg" xmlns:xlink="http://www.w3.org/1999/xlink" x="0px" y="0px"
	 viewBox="0 0 1000 786.3" style="enable-background:new 0 0 1000 786.3;" xml:space="preserve">
<style type="text/css">
	.st0{fill:#FFFFFF;}
	.st1{fill:#FFD100;}
	.st2{fill:#1D1D1B;}
</style>
<g>
	<path class="st0" d="M439.1,0v48.7h-51.3v48.8H336v49.9h-51.7v166c0,0,91.2,83.3,104.2,95.2v176.8h223.8V409.6
		c12.9-12,103.5-96.4,103.5-96.4V147.3h-51.4V97.8h-52.1V48.8h-52.1V0H439.1"/>
	<rect x="425.7" y="328" class="st1" width="43.9" height="218.7"/>
	<rect x="477.7" y="282.9" class="st1" width="43.9" height="263.8"/>
	<rect x="529.7" y="328" class="st1" width="43.8" height="218.7"/>
	<polyline class="st2" points="365.6,336.6 321.8,297.6 321.8,185.5 365.6,185.5 365.6,336.6 	"/>
	<polyline class="st2" points="417.6,385.3 373.8,342.3 373.8,135.9 417.6,135.9 417.6,385.3 	"/>
	<rect x="425.7" y="87.2" class="st2" width="43.9" height="233.9"/>
	<rect x="477.7" y="38.4" class="st2" width="43.9" height="234.8"/>
	<polyline class="st2" points="633.7,336.6 677.5,297.6 677.5,185.5 633.7,185.5 633.7,336.6 	"/>
	<polyline class="st2" points="581.7,385.3 625.5,342.3 625.5,135.9 581.7,135.9 581.7,385.3 	"/>
	<rect x="529.7" y="87.2" class="st2" width="43.8" height="233.9"/>
</g>
<g>
	<path class="st2" d="M564.4,786.3h-33.7V718c0-6.2-1.3-10.7-3.9-13.5c-2.6-2.8-8.3-4.2-17.1-4.2h-18.9c-8.2,0-13.7,1.5-16.5,4.6
		c-2.8,3.1-4.1,7.4-4.1,13.1v68.4h-33.9V707c0-10.8,2.9-18.8,8.7-24.2c5.8-5.3,16.1-8,31-8h49.3c15,0,25.3,2.8,30.8,8.3
		c5.5,5.5,8.3,13.5,8.3,23.9V786.3"/>
	<path class="st2" d="M616.8,742.7c0.1,5.9,1.5,10.3,4.3,13.4c2.7,3,8.1,4.6,16.3,4.6h72.7v25.2h-87.3c-14.7,0-25-2.6-30.7-8
		c-5.7-5.3-8.6-13.3-8.6-24v-47.1c0-10.7,2.9-18.7,8.6-24c5.7-5.3,15.9-7.9,30.7-7.9h87.3v25.3h-72.7c-8.1,0-13.5,1.5-16.3,4.6
		c-2.7,3-4.2,7.2-4.3,12.6h93.2v25.3H616.8"/>
	<path class="st2" d="M239.8,717.5c0-6.2-1.3-10.6-3.9-13.5c-2.6-2.8-8.3-4.2-17.1-4.2H200c-8.2,0-13.7,1.5-16.5,4.6
		c-2.8,3.1-4.1,7.4-4.1,13.1v25.4c0,5.6,1.4,10,4.1,13.1c2.8,3.1,8.2,4.6,16.5,4.6h18.9c8.9,0,14.5-1.4,16.9-4.2
		c2.4-2.8,3.8-7.3,4-13.3V717.5 M265.2,777.8c-5.5,5.5-15.8,8.3-30.8,8.3h-49.3c-14.9,0-25.2-2.7-31-8c-5.8-5.3-8.7-13.4-8.7-24.2
		v-47.4c0-10.8,2.9-18.8,8.7-24.2c5.8-5.3,16.1-8,31-8h49.3c15,0,25.3,2.8,30.8,8.3c5.5,5.5,8.3,13.5,8.3,23.9v47.4
		C273.5,764.3,270.7,772.3,265.2,777.8"/>
	<path class="st2" d="M762.4,742.5v43.5h-33.5l-0.2-79.5c0-10.8,2.9-18.8,8.7-24.2c5.8-5.3,16.1-8,31-8h88.4v25.4h-73.5
		c-8.2,0-13.7,1.5-16.5,4.6c-2.8,3.1-4.2,7.3-4.3,12.7h94.3v25.4H762.4"/>
	<polyline class="st2" points="918.4,699.8 872.2,699.8 872.2,674.4 1000,674.4 1000,699.8 951.9,699.8 951.9,786.1 918.4,786.1 
		918.4,699.8 	"/>
	<path class="st2" d="M33.1,700.2h49c6.1,0,11.1,5,11.1,11.1s-5,11.1-11.1,11.1h-49V700.2 M128.8,786l-37.3-38.4
		c12.8-0.4,21.6-3.1,26.6-8.1c5.4-5.5,8.2-13.4,8.2-23.8v-8.8c0-10.3-2.7-18.2-8.2-23.7c-5.5-5.5-15.6-8.2-30.5-8.2H0v111h33.1
		l0-38.3h20.8L91.1,786H128.8z"/>
	<path class="st2" d="M409.7,725.4c-5-5.1-14.1-7.8-27.1-8.2c0,0,0,0-0.1,0l-51.7,0c-4.8,0-8.6-3.9-8.6-8.6c0-4.8,3.9-8.6,8.6-8.6
		l82.4,0v-25.4h-82.5c-14.7,0-24.9,2.6-30.7,7.9c-5.2,4.9-8.1,11.9-8.5,21.3c-1.7,39.2,22.2,38.9,35.2,39.3h0.1l51.7,0
		c4.8,0,8.6,3.9,8.6,8.6c0,4.8-3.9,8.6-8.6,8.6l-82.6,0v25.4h82.8c14.7,0,24.9-2.6,30.7-7.9c5.2-4.9,8-11.9,8.5-21.3
		C417.9,755.8,419.5,735.6,409.7,725.4"/>
</g>
</svg>
