<?xml version="1.0" encoding="utf-8"?>
<!-- Generator: Adobe Illustrator 28.0.0, SVG Export Plug-In . SVG Version: 6.00 Build 0)  -->
<svg version="1.1" id="Layer_1" xmlns="http://www.w3.org/2000/svg" xmlns:xlink="http://www.w3.org/1999/xlink" x="0px" y="0px"
	 viewBox="0 0 1000 306.2" style="enable-background:new 0 0 1000 306.2;" xml:space="preserve">
<style type="text/css">
	.st0{fill:#FFDD2D;}
	.st1{fill-rule:evenodd;clip-rule:evenodd;fill:#333333;}
	.st2{fill:#333333;}
</style>
<g>
	<g>
		<g>
			<path class="st0" d="M0,0h306.2v154c0,39.5-21.1,76-55.2,95.7l-97.8,56.5l-97.8-56.5C21.1,229.9,0,193.5,0,154V0z"/>
			<path class="st1" d="M84,81v47.9c6.5-7.4,18.5-12.4,32.1-12.4h14.8v55.7c0,14.8-4,27.8-10,34.9h64.4c-6-7.1-10-20.1-10-34.9
				v-55.7h14.8c13.6,0,25.5,5,32.1,12.4V81H84z"/>
		</g>
		<path class="st2" d="M497.8,141.7c15.9,4.5,23,17,23,29.4c0,14.8-8.7,27.3-22.8,32.6c-6.9,2.6-15.1,3.4-26.2,3.4h-93.5V81H470
			c11.6,0,19.9,0.8,26.2,2.9c14.6,4.8,22,15.9,22,29.4C518.2,127.1,509.2,136.7,497.8,141.7z M465,130.8c3.7,0,6.6-0.3,8.5-1.1
			c4.8-2.1,6.9-5.8,6.9-10.1s-2.1-7.9-6.6-9.5c-2.1-0.8-5-1.1-8.7-1.1h-50.1v21.7H465z M466.3,178c3.7,0,6.6-0.3,8.7-1.1
			c4.8-1.9,6.9-5.6,6.9-10.1c0-4.2-2.1-7.7-6.4-9.3c-2.1-0.8-5-1.1-9.3-1.1h-51.4V178H466.3z"/>
		<path class="st2" d="M573.5,188.8l-7.1,18.3h-43.4L574.6,81h56.1l51.7,126.1h-43.2l-7.4-18.3H573.5z M583.1,161h39.5l-18.3-50.9
			h-2.9L583.1,161z"/>
		<path class="st2" d="M728.6,81l66.5,69.1V81h36.6v126.1h-33.9l-68.1-69.7v69.7h-36.6V81H728.6z"/>
		<path class="st2" d="M892.5,159.4v47.7h-38.4V81h38.4v47.4h10.6L949.4,81h48.2l-61.5,60.4l63.8,65.7h-51.1l-45.8-47.7H892.5z"/>
	</g>
</g>
</svg>
