<?xml version="1.0" encoding="utf-8"?>
<!-- Generator: Adobe Illustrator 28.0.0, SVG Export Plug-In . SVG Version: 6.00 Build 0)  -->
<svg version="1.1" id="Слой_1" xmlns="http://www.w3.org/2000/svg" xmlns:xlink="http://www.w3.org/1999/xlink" x="0px" y="0px"
	 viewBox="0 0 1000 285.7" style="enable-background:new 0 0 1000 285.7;" xml:space="preserve">
<style type="text/css">
	.st0{fill:#E84241;}
	.st1{fill:#0AA373;}
</style>
<path class="st0" d="M112,59.6c17.6,46.6-11.1,76.5-39.6,106.4c-26.6,30.6-50,62.4-2.9,119.7c-17.6-46.6,11.1-76.5,39.6-106.4
	C135.7,148.6,159.1,116.9,112,59.6z"/>
<path class="st1" d="M69.5,0c17.6,46.6-11.1,76.5-39.6,106.4c-26.6,30.6-50,62.5-2.9,119.7c-17.6-46.6,11.1-76.5,39.6-106.4
	C93.2,89.1,116.6,57.2,69.5,0z"/>
<path class="st1" d="M795.4,183.5v96.3h40v-35.3h44.5v-21.1h-44.5v-18.9h88.3v75.2h40v-75.2h36.3v-21.1H795.4z"/>
<path class="st1" d="M710.7,256.8V240h52.8V219h-52.8v-16.5h67.7v-21.1H670.7v96.3h108.5v-20.9H710.7z"/>
<path class="st0" d="M510.2,183.5H400.9v21.1h35.8v75.2h40v-75.2h33.6V183.5z"/>
<path class="st0" d="M285,183.5H173.1v21.1h35.8v75.2h40v-75.2H285V183.5z"/>
<path class="st0" d="M364.1,183.5H321l-50.2,96.3h26.2l8.2-16.5h56.4l8.2,16.5h44.5L364.1,183.5z M315.2,243.4l18.6-37.3l17.8,37.3
	H315.2z"/>
<path class="st1" d="M619.5,183.5v48.2l-64.4-48.2h-31.2v96.3h27.5v-53l66.1,53H647v-96.3H619.5z"/>
</svg>
