<?xml version="1.0" encoding="utf-8"?>
<!-- Generator: Adobe Illustrator 28.0.0, SVG Export Plug-In . SVG Version: 6.00 Build 0)  -->
<svg version="1.1" id="Слой_1" xmlns="http://www.w3.org/2000/svg" xmlns:xlink="http://www.w3.org/1999/xlink" x="0px" y="0px"
	 viewBox="0 0 1000 348.1" style="enable-background:new 0 0 1000 348.1;" xml:space="preserve">
<style type="text/css">
	.st0{fill:#00AAFF;}
	.st1{fill:#0A2896;}
</style>
<path class="st0" d="M249.2,138.8H15.8L0,185.1h233.5C233.5,185.1,249.2,138.8,249.2,138.8z M274.5,69.4H42l-16.8,46.3h233.5
	L274.5,69.4z M300.7,0H67.3L50.5,46.2h233.4L300.7,0z"/>
<path class="st1" d="M411.2,346.9L323.8,69.4h61l33.7,120.9c9.4,35.7,14.7,54.7,21,85.2c6.2-28.4,9.4-42,21-83.1l33.7-123.1H553
	l-87.1,277.6H411.2z M645.6,346.9V115.8h-79.9V69.4h223.1L773,115.7h-71.4v231.2h-55.8H645.6z M861.2,180.9h31.5
	c9.5,0,14.7,0,18.9-1c12.7-4.2,21.1-15.7,21.1-31.5c0-18.9-8.5-27.3-21.1-30.5c-5.2-1-10.5-2-21-2h-29.4V180.9z M862.2,228.3v72.6
	h38.9c11.6,0,22.1-1,29.5-8.4c7.6-7.5,11.7-17.7,11.5-28.4c0-9.5-2-18-7.3-24.2c-8.4-10.6-17.9-12.7-35.7-12.7h-36.7v1H862.2z
	 M950.6,199.9c9.2,4.5,18,9.8,26.2,15.8c16.8,13.6,23.2,31.5,23.2,54.6c0,37.9-20,65.3-53.6,73.7c-10.6,3.1-21.1,4.1-40,4.1h-101
	V69.4h89.5c17.9,0,30.4,1,42,4.2c32.7,8.5,53.6,30.6,53.6,66.3c0,18.9-6.2,34.7-17.9,45.2c-5.2,4.1-11.5,9.4-22,14.7L950.6,199.9z"
	/>
</svg>
